<svg xmlns="http://www.w3.org/2000/svg" width="1200" height="560" viewBox="0 0 1200 560">
<rect x="0" y="0" width="100%" height="100%" fill="white"/>
<text x="30" y="34" font-size="24" font-family="Arial">End-to-End Latency: Client Submit -> Leader Commit</text>
<text x="30" y="58" font-size="13" font-family="Arial">cluster_sizes=3, message_length=256, submit_mode=round_robin</text>
<rect x="70" y="90" width="500" height="340" fill="none" stroke="#333"/>
<line x1="70" y1="430.0" x2="570" y2="430.0" stroke="#eee"/>
<text x="42" y="434.0" font-size="10" font-family="Arial">0.0</text>
<line x1="70" y1="362.0" x2="570" y2="362.0" stroke="#eee"/>
<text x="42" y="366.0" font-size="10" font-family="Arial">0.2</text>
<line x1="70" y1="294.0" x2="570" y2="294.0" stroke="#eee"/>
<text x="42" y="298.0" font-size="10" font-family="Arial">0.4</text>
<line x1="70" y1="226.0" x2="570" y2="226.0" stroke="#eee"/>
<text x="42" y="230.0" font-size="10" font-family="Arial">0.6</text>
<line x1="70" y1="158.0" x2="570" y2="158.0" stroke="#eee"/>
<text x="42" y="162.0" font-size="10" font-family="Arial">0.8</text>
<line x1="70" y1="90.0" x2="570" y2="90.0" stroke="#eee"/>
<text x="42" y="94.0" font-size="10" font-family="Arial">1.0</text>
<line x1="70.0" y1="90" x2="70.0" y2="430" stroke="#f3f3f3"/>
<text x="56.0" y="448" font-size="10" font-family="Arial">38.1</text>
<line x1="170.0" y1="90" x2="170.0" y2="430" stroke="#f3f3f3"/>
<text x="156.0" y="448" font-size="10" font-family="Arial">67.2</text>
<line x1="270.0" y1="90" x2="270.0" y2="430" stroke="#f3f3f3"/>
<text x="256.0" y="448" font-size="10" font-family="Arial">96.3</text>
<line x1="370.0" y1="90" x2="370.0" y2="430" stroke="#f3f3f3"/>
<text x="356.0" y="448" font-size="10" font-family="Arial">125.5</text>
<line x1="470.0" y1="90" x2="470.0" y2="430" stroke="#f3f3f3"/>
<text x="456.0" y="448" font-size="10" font-family="Arial">154.6</text>
<line x1="570.0" y1="90" x2="570.0" y2="430" stroke="#f3f3f3"/>
<text x="556.0" y="448" font-size="10" font-family="Arial">183.7</text>
<path d="M 138.70 426.60 L 139.57 423.20 L 143.14 419.80 L 146.08 416.40 L 148.61 413.00 L 155.21 409.60 L 156.20 406.20 L 158.44 402.80 L 166.10 399.40 L 166.23 396.00 L 202.08 392.60 L 287.95 389.20 L 289.70 385.80 L 293.23 382.40 L 307.53 379.00 L 309.85 375.60 L 310.58 372.20 L 312.35 368.80 L 313.63 365.40 L 315.22 362.00 L 315.75 358.60 L 316.36 355.20 L 317.28 351.80 L 318.07 348.40 L 319.62 345.00 L 320.12 341.60 L 324.93 338.20 L 324.94 334.80 L 325.51 331.40 L 325.79 328.00 L 325.95 324.60 L 326.67 321.20 L 326.70 317.80 L 327.21 314.40 L 329.56 311.00 L 329.65 307.60 L 329.90 304.20 L 330.89 300.80 L 332.49 297.40 L 332.79 294.00 L 333.36 290.60 L 333.65 287.20 L 334.15 283.80 L 336.29 280.40 L 338.32 277.00 L 342.73 273.60 L 345.75 270.20 L 346.53 266.80 L 348.29 263.40 L 349.37 260.00 L 350.49 256.60 L 351.10 253.20 L 351.98 249.80 L 352.13 246.40 L 352.79 243.00 L 353.99 239.60 L 356.89 236.20 L 362.84 232.80 L 453.99 229.40 L 460.85 226.00 L 467.48 222.60 L 469.75 219.20 L 473.96 215.80 L 474.59 212.40 L 475.46 209.00 L 483.28 205.60 L 485.21 202.20 L 486.22 198.80 L 486.41 195.40 L 486.54 192.00 L 486.56 188.60 L 487.07 185.20 L 489.40 181.80 L 489.58 178.40 L 490.01 175.00 L 490.10 171.60 L 491.68 168.20 L 494.09 164.80 L 496.93 161.40 L 497.31 158.00 L 498.73 154.60 L 498.90 151.20 L 499.83 147.80 L 502.70 144.40 L 502.72 141.00 L 503.87 137.60 L 504.65 134.20 L 505.65 130.80 L 505.86 127.40 L 507.91 124.00 L 510.72 120.60 L 511.30 117.20 L 512.02 113.80 L 512.24 110.40 L 514.18 107.00 L 515.36 103.60 L 516.86 100.20 L 517.33 96.80 L 517.78 93.40 L 539.95 90.00" fill="none" stroke="#1f77b4" stroke-width="2"/>
<text x="70" y="78" font-size="14" font-family="Arial">CDF</text>
<text x="286.0" y="460" font-size="12" font-family="Arial">latency (ms)</text>
<text x="14" y="260.0" font-size="12" font-family="Arial" transform="rotate(-90 14,260.0)">CDF</text>
<rect x="640" y="90" width="500" height="340" fill="none" stroke="#333"/>
<line x1="640" y1="430.0" x2="1140" y2="430.0" stroke="#eee"/>
<text x="600" y="434.0" font-size="10" font-family="Arial">0.0</text>
<line x1="640" y1="362.0" x2="1140" y2="362.0" stroke="#eee"/>
<text x="600" y="366.0" font-size="10" font-family="Arial">38.5</text>
<line x1="640" y1="294.0" x2="1140" y2="294.0" stroke="#eee"/>
<text x="600" y="298.0" font-size="10" font-family="Arial">77.0</text>
<line x1="640" y1="226.0" x2="1140" y2="226.0" stroke="#eee"/>
<text x="600" y="230.0" font-size="10" font-family="Arial">115.5</text>
<line x1="640" y1="158.0" x2="1140" y2="158.0" stroke="#eee"/>
<text x="600" y="162.0" font-size="10" font-family="Arial">154.0</text>
<line x1="640" y1="90.0" x2="1140" y2="90.0" stroke="#eee"/>
<text x="600" y="94.0" font-size="10" font-family="Arial">192.6</text>
<line x1="640.0" y1="90" x2="640.0" y2="430" stroke="#f3f3f3"/>
<text x="630.0" y="448" font-size="10" font-family="Arial">3</text>
<circle cx="640.00" cy="218.80" r="2.8" fill="#1f77b4"/>
<circle cx="640.00" cy="134.35" r="2.8" fill="#d62728"/>
<text x="640" y="78" font-size="14" font-family="Arial">p50/p95 vs cluster size</text>
<text x="838.0" y="460" font-size="12" font-family="Arial">cluster size (nodes)</text>
<text x="582" y="260.0" font-size="12" font-family="Arial" transform="rotate(-90 582,260.0)">latency (ms)</text>
<rect x="76" y="90" width="260" height="48" fill="white" fill-opacity="0.88" stroke="#999"/>
<text x="82" y="104" font-size="11" font-family="Arial">cluster / successful / timeout</text>
<line x1="82" y1="118" x2="102" y2="118" stroke="#1f77b4" stroke-width="2"/>
<text x="108" y="122" font-size="11" font-family="Arial">N=3 n=100/100 timeout=0.0%</text>
<line x1="652" y1="104" x2="676" y2="104" stroke="#1f77b4" stroke-width="2"/>
<text x="682" y="108" font-size="11" font-family="Arial">p50</text>
<line x1="722" y1="104" x2="746" y2="104" stroke="#d62728" stroke-width="2"/>
<text x="752" y="108" font-size="11" font-family="Arial">p95</text>
<text x="70" y="500" font-size="12" font-family="Arial">overall n_ok=100/100 timeout=0 mean=128.413ms p50=119.613ms p95=167.444ms p99=168.540ms</text>
</svg>